<?xml version="1.0" standalone="no"?>
<!DOCTYPE svg PUBLIC "-//W3C//DTD SVG 20010904//EN"
 "http://www.w3.org/TR/2001/REC-SVG-20010904/DTD/svg10.dtd">
<svg version="1.0" xmlns="http://www.w3.org/2000/svg"
 width="1436.000000pt" height="1436.000000pt" viewBox="0 0 1436.000000 1436.000000"
 preserveAspectRatio="xMidYMid meet">
<metadata>
Created by potrace 1.16, written by Peter Selinger 2001-2019
</metadata>
<g transform="translate(0.000000,1436.000000) scale(0.100000,-0.100000)"
fill="#000000" stroke="none">
<path d="M8390 9126 c-75 -41 -75 -41 -903 -37 -827 3 -827 3 -1112 -165 -285
-169 -285 -169 -379 -359 -146 -296 -175 -361 -169 -385 3 -12 1 -67 -6 -123
-14 -129 -75 -682 -97 -890 -15 -141 -16 -188 -5 -430 7 -150 15 -337 18 -416
6 -143 6 -143 104 -300 55 -86 100 -160 102 -165 2 -7 487 -81 768 -118 86
-11 86 -11 577 207 490 218 490 218 618 394 256 351 346 471 355 471 5 0 21
-7 35 -17 25 -16 26 -16 90 48 48 48 64 70 64 91 0 52 61 88 90 53 10 -12 37
-15 122 -15 134 0 171 16 270 117 67 68 67 68 49 152 -14 69 -22 86 -39 92
-13 5 -25 15 -28 23 -3 8 16 71 42 141 47 124 48 127 103 166 55 40 56 42 103
167 26 70 52 135 58 145 9 15 0 31 -60 97 -68 75 -70 80 -74 136 -3 33 -11
109 -19 169 -14 110 -25 144 -160 490 -25 65 -2 49 -402 279 -40 23 -40 23
-115 -18z"/>
<path d="M3680 8329 c-115 -8 -220 -26 -671 -115 -86 -17 -86 -17 -103 -113
-52 -288 -55 -308 -60 -556 -4 -137 -9 -291 -12 -341 -6 -90 -6 -90 195 -272
111 -100 207 -179 214 -177 6 2 138 16 292 30 452 40 463 42 575 79 58 19 125
39 148 46 38 10 43 14 38 33 -3 12 -21 136 -41 274 -37 253 -37 253 -2 420 89
418 86 367 25 421 -326 296 -305 282 -403 280 -49 0 -137 -4 -195 -9z"/>
<path d="M4832 5555 c-174 -124 -208 -152 -355 -294 -78 -75 -78 -75 -76 -295
1 -122 2 -234 3 -250 1 -28 9 -33 185 -114 184 -84 184 -84 265 -73 45 6 158
20 251 31 265 31 238 22 290 97 61 87 84 135 90 185 3 24 14 149 26 279 21
237 21 237 -27 280 -27 24 -75 68 -106 98 -50 46 -77 62 -205 113 -82 33 -152
61 -158 63 -5 3 -88 -51 -183 -120z"/>
<path d="M6020 5605 c0 -18 5 -25 20 -25 15 0 20 7 20 25 0 18 -5 25 -20 25
-15 0 -20 -7 -20 -25z"/>
<path d="M6317 5573 c-4 -3 -7 -15 -7 -25 0 -21 36 -25 43 -5 9 27 -17 50 -36
30z"/>
<path d="M6708 4999 c-177 -70 -336 -203 -341 -285 -2 -33 1 -38 28 -46 79
-22 287 76 407 193 40 38 40 38 2 99 -20 33 -40 60 -43 59 -3 -1 -27 -9 -53
-20z"/>
<path d="M5802 4758 c4 -27 33 -36 42 -13 8 22 -1 35 -25 35 -15 0 -20 -6 -17
-22z"/>
<path d="M6097 4724 c-4 -4 -7 -16 -7 -26 0 -14 6 -19 23 -16 14 2 22 10 22
23 0 20 -25 32 -38 19z"/>
<path d="M6104 4589 c-9 -15 11 -33 30 -26 9 4 13 13 10 22 -7 17 -30 20 -40
4z"/>
</g>
</svg>
