<?xml version="1.0" standalone="no"?>
<!DOCTYPE svg PUBLIC "-//W3C//DTD SVG 20010904//EN"
 "http://www.w3.org/TR/2001/REC-SVG-20010904/DTD/svg10.dtd">
<svg version="1.0" xmlns="http://www.w3.org/2000/svg"
 width="2000.000000pt" height="2000.000000pt" viewBox="0 0 2000.000000 2000.000000"
 preserveAspectRatio="xMidYMid meet">
<metadata>
Created by potrace 1.16, written by Peter Selinger 2001-2019
</metadata>
<g transform="translate(0.000000,2000.000000) scale(0.100000,-0.100000)"
fill="#000000" stroke="none">
<path d="M9235 12735 c-11 -7 -94 -56 -185 -109 -91 -53 -172 -101 -180 -106
-8 -5 -49 -29 -90 -53 -135 -80 -343 -209 -354 -220 -23 -24 -76 -110 -86
-141 -5 -17 -35 -79 -65 -136 -30 -58 -55 -108 -55 -113 0 -4 -18 -39 -40 -78
-22 -39 -40 -77 -40 -84 0 -14 -96 -204 -111 -219 -13 -14 -11 -83 3 -105 9
-15 9 -28 0 -58 -11 -37 -57 -441 -88 -773 -3 -30 -7 -71 -9 -90 -2 -19 -6
-58 -9 -87 -3 -28 -8 -69 -10 -90 -3 -21 -8 -71 -11 -111 -3 -40 -15 -146 -25
-235 -18 -161 -18 -164 5 -658 14 -273 24 -520 24 -550 0 -108 9 -137 84 -260
39 -65 81 -135 92 -156 12 -21 37 -63 58 -93 20 -30 37 -60 37 -65 0 -13 43
-55 80 -78 14 -9 52 -19 85 -22 90 -8 109 -10 125 -18 12 -5 514 -77 705 -102
325 -41 298 -43 445 23 74 33 203 90 285 126 202 90 216 96 245 111 14 7 99
45 190 85 358 156 506 225 539 249 32 24 69 71 183 229 29 41 62 84 74 97 12
13 24 30 27 39 4 9 11 16 17 16 5 0 10 4 10 9 0 14 82 131 92 131 4 0 8 5 8
10 0 6 33 55 73 108 40 53 80 108 89 122 8 14 25 36 37 49 11 13 21 28 21 33
0 5 12 13 28 19 16 7 22 13 14 16 -10 4 -10 8 -1 19 6 8 15 11 20 8 5 -3 6 1
4 8 -8 20 101 114 205 178 49 30 151 95 227 143 76 48 147 93 158 100 11 7 41
27 68 45 26 17 51 32 55 32 16 0 92 72 121 113 16 23 45 92 66 152 21 61 42
119 48 130 6 11 21 47 33 80 12 33 32 87 44 120 13 33 26 65 30 70 4 6 10 22
14 38 3 15 11 27 16 27 6 0 10 11 10 24 0 13 7 27 16 30 10 4 14 14 11 26 -3
11 -1 18 4 14 5 -3 9 10 9 28 0 18 7 46 15 62 12 23 15 85 15 362 0 334 0 334
-31 412 -17 42 -35 85 -40 94 -5 10 -9 29 -9 43 0 14 -4 25 -10 25 -5 0 -13
12 -16 27 -4 15 -13 38 -20 52 -8 14 -14 33 -14 42 0 8 -4 19 -9 25 -11 10
-87 203 -125 317 -41 121 -84 204 -124 237 -28 23 -115 55 -387 144 -350 115
-350 115 -1525 119 -932 4 -1179 2 -1195 -8z"/>
<path d="M5160 11689 c-181 -10 -309 -28 -570 -80 -113 -22 -212 -41 -220 -42
-8 -2 -33 -8 -55 -15 -22 -6 -60 -14 -85 -17 -75 -9 -153 -26 -182 -41 -52
-27 -63 -58 -107 -304 -53 -301 -52 -284 -55 -495 -1 -99 -5 -247 -7 -330 -4
-142 -11 -457 -9 -481 0 -6 12 -24 26 -39 14 -15 30 -38 35 -52 5 -13 20 -28
33 -33 13 -5 48 -32 78 -60 29 -28 79 -74 112 -103 32 -29 72 -67 89 -84 16
-18 35 -33 41 -33 6 -1 20 -15 31 -32 11 -18 41 -43 66 -57 25 -14 54 -34 63
-43 35 -36 -14 -38 886 47 245 24 245 24 455 90 215 69 250 85 279 130 19 29
25 -23 -59 540 -41 272 -47 198 51 642 24 111 46 219 49 240 9 56 11 65 19 96
7 22 2 35 -25 72 -31 40 -420 398 -473 435 -11 8 -34 25 -49 37 -27 21 -37 23
-150 22 -67 -1 -187 -6 -267 -10z"/>
<path d="M6925 7976 c-11 -6 -53 -34 -94 -61 -40 -28 -88 -60 -105 -71 -17
-12 -37 -29 -45 -38 -7 -9 -19 -16 -26 -16 -6 0 -20 -9 -30 -20 -10 -11 -22
-20 -26 -20 -9 0 -54 -33 -158 -113 -94 -72 -341 -298 -341 -311 0 -3 -14 -20
-31 -38 -31 -33 -31 -33 -25 -398 4 -245 10 -374 18 -391 7 -15 26 -35 43 -45
16 -10 36 -24 43 -31 7 -7 19 -13 26 -13 7 0 91 -36 187 -80 96 -44 179 -80
185 -80 6 0 17 -6 23 -14 20 -24 80 -27 216 -12 72 9 155 18 185 21 30 2 73 7
95 10 22 3 60 8 85 10 69 6 158 15 233 25 86 10 134 41 183 115 20 30 41 55
45 55 5 0 9 7 9 15 0 8 4 15 9 15 5 0 15 16 21 35 6 19 22 44 35 57 14 13 25
31 25 41 0 9 4 25 9 35 9 16 58 513 66 668 2 38 6 84 10 101 11 49 -34 110
-166 228 -179 160 -177 160 -519 294 -107 42 -150 48 -185 27z"/>
</g>
</svg>
