<?xml version="1.0" standalone="no"?>
<!DOCTYPE svg PUBLIC "-//W3C//DTD SVG 20010904//EN"
 "http://www.w3.org/TR/2001/REC-SVG-20010904/DTD/svg10.dtd">
<svg version="1.0" xmlns="http://www.w3.org/2000/svg"
 width="2000.000000pt" height="2000.000000pt" viewBox="0 0 2000.000000 2000.000000"
 preserveAspectRatio="xMidYMid meet">
<metadata>
Created by potrace 1.16, written by Peter Selinger 2001-2019
</metadata>
<g transform="translate(0.000000,2000.000000) scale(0.100000,-0.100000)"
fill="#000000" stroke="none">
<path d="M9225 12728 c-44 -24 -466 -274 -545 -323 -47 -29 -120 -73 -164 -99
-43 -26 -89 -60 -102 -74 -13 -15 -67 -116 -121 -224 -53 -109 -100 -198 -105
-198 -4 0 -8 -11 -8 -24 0 -14 -4 -27 -8 -30 -5 -3 -22 -36 -37 -73 -16 -37
-49 -103 -72 -146 -44 -79 -57 -149 -32 -174 8 -8 8 -20 0 -45 -6 -18 -22
-139 -36 -268 -28 -264 -34 -323 -41 -395 -4 -50 -11 -118 -19 -185 -2 -19 -6
-60 -9 -90 -4 -30 -8 -71 -10 -90 -2 -19 -7 -69 -10 -110 -4 -41 -16 -151 -27
-245 -19 -170 -19 -170 6 -700 13 -291 26 -557 28 -591 2 -56 9 -70 90 -203
48 -78 87 -149 87 -157 0 -8 6 -17 14 -20 8 -3 20 -20 27 -37 7 -17 21 -39 31
-49 10 -10 18 -24 18 -30 1 -23 110 -98 144 -99 17 0 47 -2 66 -4 19 -2 42 -5
50 -5 8 -1 24 -5 35 -10 21 -9 553 -85 879 -126 117 -14 132 -14 160 0 17 8
65 30 106 47 41 18 120 53 175 79 55 26 134 61 175 79 85 36 134 58 170 76 14
7 99 45 190 85 479 209 524 231 583 287 10 9 63 80 120 157 56 77 112 151 124
164 13 14 23 28 23 31 0 7 187 266 267 369 26 34 52 71 57 82 5 11 17 20 26
20 10 0 20 7 24 15 3 8 1 15 -5 15 -6 0 -8 4 -4 10 3 5 13 6 21 3 12 -4 15 0
12 15 -4 25 48 76 132 130 30 19 84 54 120 77 36 23 111 72 168 109 57 36 106
66 109 66 3 0 28 16 54 35 27 19 52 35 55 35 3 0 26 15 52 33 26 17 56 37 66
42 26 13 105 115 106 136 0 14 47 150 74 214 13 31 69 177 88 230 6 17 15 34
20 39 4 6 8 18 8 27 0 10 7 25 16 33 8 9 13 20 10 25 -4 5 1 16 9 24 8 9 15
25 15 37 0 12 14 54 30 94 31 73 31 73 28 397 -3 324 -3 324 -45 421 -24 53
-43 108 -43 122 0 15 -4 26 -10 26 -5 0 -13 12 -16 27 -4 15 -13 38 -20 52 -8
14 -14 34 -14 43 0 9 -4 19 -8 22 -8 5 -25 49 -124 311 -74 198 -84 216 -142
249 -23 14 -194 74 -381 135 -340 111 -340 111 -1515 111 -838 -1 -1181 -4
-1195 -12z"/>
<path d="M5265 11693 c-278 -13 -437 -34 -750 -99 -66 -14 -127 -26 -135 -27
-8 -2 -34 -9 -57 -15 -23 -7 -64 -15 -90 -17 -71 -7 -154 -25 -183 -40 -36
-19 -66 -64 -73 -110 -3 -22 -21 -130 -41 -240 -20 -110 -39 -218 -43 -240 -3
-22 -6 -132 -7 -245 -1 -267 -15 -740 -22 -751 -6 -10 10 -41 34 -70 40 -46
93 -99 100 -99 4 0 19 -12 34 -27 14 -16 52 -50 83 -78 32 -27 74 -67 93 -87
19 -21 41 -38 47 -38 14 0 50 -38 58 -63 4 -9 15 -20 24 -24 24 -9 76 -45 85
-59 4 -6 25 -18 46 -28 39 -17 50 -17 573 33 534 51 534 51 739 116 236 75
244 79 277 122 28 36 32 -12 -48 523 -45 301 -51 221 47 667 24 112 46 224 50
250 3 25 9 54 15 64 17 32 9 54 -38 111 -44 52 -405 383 -457 418 -11 8 -34
25 -49 37 -26 21 -37 23 -140 21 -62 -1 -139 -3 -172 -5z"/>
<path d="M11445 9270 c-3 -5 -1 -10 4 -10 6 0 11 5 11 10 0 6 -2 10 -4 10 -3
0 -8 -4 -11 -10z"/>
<path d="M6900 7962 c-25 -15 -81 -52 -124 -82 -43 -30 -112 -78 -152 -105
-40 -28 -83 -60 -97 -73 -13 -12 -28 -22 -35 -22 -6 0 -17 -8 -24 -18 -12 -16
-43 -40 -87 -67 -9 -5 -42 -35 -73 -65 -31 -30 -91 -86 -132 -125 -42 -38 -76
-75 -76 -81 0 -7 -7 -14 -15 -18 -8 -3 -15 -12 -15 -21 0 -8 -7 -15 -15 -15
-13 0 -15 -25 -15 -162 0 -90 3 -262 7 -382 6 -219 6 -219 45 -257 22 -21 49
-41 61 -45 28 -8 329 -144 342 -154 6 -4 24 -11 42 -14 17 -4 37 -14 44 -22
13 -16 117 -19 219 -5 36 5 94 12 130 16 36 3 79 8 95 10 17 3 55 7 85 10 231
21 335 37 365 55 38 24 86 74 114 123 13 20 26 37 31 37 5 0 13 15 20 34 6 18
20 42 30 51 11 10 20 22 20 27 0 4 9 27 19 51 14 32 25 113 46 342 15 165 28
327 30 360 2 33 6 72 10 87 11 41 -36 106 -148 210 -133 123 -227 187 -337
230 -258 102 -304 118 -334 117 -17 0 -51 -12 -76 -27z"/>
</g>
</svg>
