{
	"asset":{
		"generator":"Khronos glTF Blender I/O v4.4.55",
		"version":"2.0"
	},
	"scene":0,
	"scenes":[
		{
			"name":"Scene",
			"nodes":[
				0
			]
		}
	],
	"nodes":[
		{
			"mesh":0,
			"name":"island",
			"scale":[
				-1,
				-1.18626070022583,
				-1
			]
		}
	],
	"materials":[
		{
			"doubleSided":true,
			"name":"Material",
			"pbrMetallicRoughness":{
				"baseColorFactor":[
					0.800000011920929,
					0.800000011920929,
					0.800000011920929,
					1
				],
				"metallicFactor":0,
				"roughnessFactor":0.5
			}
		}
	],
	"meshes":[
		{
			"name":"Plane.001",
			"primitives":[
				{
					"attributes":{
						"POSITION":0,
						"NORMAL":1,
						"TEXCOORD_0":2
					},
					"indices":3,
					"material":0
				}
			]
		}
	],
	"accessors":[
		{
			"bufferView":0,
			"componentType":5126,
			"count":308,
			"max":[
				1,
				0,
				1
			],
			"min":[
				-1,
				-0.4101870357990265,
				-1
			],
			"type":"VEC3"
		},
		{
			"bufferView":1,
			"componentType":5126,
			"count":308,
			"type":"VEC3"
		},
		{
			"bufferView":2,
			"componentType":5126,
			"count":308,
			"type":"VEC2"
		},
		{
			"bufferView":3,
			"componentType":5123,
			"count":726,
			"type":"SCALAR"
		}
	],
	"bufferViews":[
		{
			"buffer":0,
			"byteLength":3696,
			"byteOffset":0,
			"target":34962
		},
		{
			"buffer":0,
			"byteLength":3696,
			"byteOffset":3696,
			"target":34962
		},
		{
			"buffer":0,
			"byteLength":2464,
			"byteOffset":7392,
			"target":34962
		},
		{
			"buffer":0,
			"byteLength":1452,
			"byteOffset":9856,
			"target":34963
		}
	],
	"buffers":[
		{
			"byteLength":11308,
			"uri":"landscape.bin"
		}
	]
}
